<svg id="Layer_1" data-name="Layer 1" xmlns="http://www.w3.org/2000/svg" viewBox="0 0 1080 1080"><defs><style>.cls-1{fill:#56aeaa;}.cls-2{fill:#83d7bc;}</style></defs><path class="cls-1" d="M245.58,621.9a114.42,114.42,0,0,1-54.48-97.07V410a114.15,114.15,0,0,1,56.21-98.11l241.21-141.4a114.37,114.37,0,0,1,111.71-1.87l12.63,6.85-12.5,23.06-12.64-6.86a88,88,0,0,0-85.94,1.45L260.57,334.47A87.83,87.83,0,0,0,217.32,410V524.83a88,88,0,0,0,41.92,74.69L465.15,725.2l-13.66,22.38Z"/><path class="cls-1" d="M449,737.39,249.44,615.58a107,107,0,0,1-50.93-90.75V410a106.7,106.7,0,0,1,52.55-91.71l241.2-141.4a106.89,106.89,0,0,1,104.43-1.75l6.12,3.32-5.43,10-6.12-3.32A95.46,95.46,0,0,0,498,186.67l-241.2,141.4A95.27,95.27,0,0,0,209.91,410V524.83a95.49,95.49,0,0,0,45.47,81L455,727.66Z"/><path class="cls-1" d="M313.28,564.78V483.89a114.06,114.06,0,0,1,56.88-98.5l244.16-140.9a114.32,114.32,0,0,1,111.47-1.25l106.84,58.52a108.25,108.25,0,0,1,56.27,95v7.41H862.68v-7.41a82.05,82.05,0,0,0-42.65-72L713.2,266.24a88.06,88.06,0,0,0-85.77.95L383.27,408.1a87.75,87.75,0,0,0-43.76,75.79v80.89Z"/><path class="cls-1" d="M332.1,557.37H320.69V483.89a106.61,106.61,0,0,1,53.18-92.08L618,250.91a106.92,106.92,0,0,1,104.21-1.17l106.84,58.52a100.86,100.86,0,0,1,52.42,88.48h-11.4a89.45,89.45,0,0,0-46.5-78.48L716.76,259.74a95.47,95.47,0,0,0-93,1L379.57,401.68a95.19,95.19,0,0,0-47.47,82.21Z"/><path class="cls-1" d="M533.43,925.08a113,113,0,0,1-50.18-11.72l-19.19-9.42,11.56-23.54,19.18,9.42a87,87,0,0,0,84.81-4.27L821.43,735a87,87,0,0,0,41.25-74.28V552.29a87,87,0,0,0-40.93-74.07L612.48,346.65l13.95-22.2L835.71,456a113.1,113.1,0,0,1,53.19,96.27V660.7a113,113,0,0,1-53.61,96.54L593.48,907.81a113.55,113.55,0,0,1-60.05,17.27Z"/><path class="cls-1" d="M533.43,917.68a106.32,106.32,0,0,1-46.92-11L474,900.55l5-10.24,12.54,6.16a94.37,94.37,0,0,0,92-4.63L825.34,741.27a94.34,94.34,0,0,0,44.75-80.57V552.3a94.42,94.42,0,0,0-44.4-80.36l-203-127.62,6.07-9.65,203,127.62a105.74,105.74,0,0,1,49.73,90V660.7A105.69,105.69,0,0,1,831.37,751L589.56,901.52A106.08,106.08,0,0,1,533.43,917.68Z"/><path class="cls-1" d="M405,845.58a114,114,0,0,1-54.4-13.79l-100.2-54.6a113.67,113.67,0,0,1-59.31-99.86V665.88h26.22v11.45A87.45,87.45,0,0,0,263,754.16l100.2,54.61a88,88,0,0,0,86.33-1.47l237.42-140A87.89,87.89,0,0,0,730,591.89V501.83h26.22v90.06a114.19,114.19,0,0,1-55.95,98l-237.42,140A113.75,113.75,0,0,1,405,845.58Z"/><path class="cls-1" d="M405,838.17a106.27,106.27,0,0,1-50.85-12.88L254,770.68a106.26,106.26,0,0,1-55.44-93.35v-4h11.4v4a94.86,94.86,0,0,0,49.5,83.34l100.21,54.6a95.31,95.31,0,0,0,93.63-1.59l237.42-140a95.32,95.32,0,0,0,46.7-81.76V509.24h11.4v82.65a106.75,106.75,0,0,1-52.3,91.58L459,823.51A106.42,106.42,0,0,1,405,838.17Z"/><path class="cls-2" d="M617.59,217A23.93,23.93,0,1,1,641.52,193,24,24,0,0,1,617.59,217Zm0-36.45A12.53,12.53,0,1,0,630.11,193,12.54,12.54,0,0,0,617.59,180.51Z"/><path class="cls-2" d="M326.4,601.19a23.93,23.93,0,1,1,23.92-23.93A24,24,0,0,1,326.4,601.19Zm0-36.45a12.53,12.53,0,1,0,12.52,12.52A12.54,12.54,0,0,0,326.4,564.74Z"/><path class="cls-2" d="M875.79,440.93A23.93,23.93,0,1,1,899.72,417,23.95,23.95,0,0,1,875.79,440.93Zm0-36.45A12.53,12.53,0,1,0,888.31,417,12.54,12.54,0,0,0,875.79,404.48Z"/><path class="cls-2" d="M743.07,512.8A23.93,23.93,0,1,1,767,488.87,24,24,0,0,1,743.07,512.8Zm0-36.45a12.53,12.53,0,1,0,12.52,12.52A12.54,12.54,0,0,0,743.07,476.35Z"/><path class="cls-2" d="M469.42,767.07a23.93,23.93,0,1,1,23.93-23.93A24,24,0,0,1,469.42,767.07Zm0-36.45A12.53,12.53,0,1,0,482,743.14,12.54,12.54,0,0,0,469.42,730.62Z"/><path class="cls-2" d="M204.21,677.12a23.93,23.93,0,1,1,23.93-23.93A24,24,0,0,1,204.21,677.12Zm0-36.46a12.53,12.53,0,1,0,12.53,12.53A12.54,12.54,0,0,0,204.21,640.66Z"/><path class="cls-2" d="M458,911.4a23.93,23.93,0,1,1,23.92-23.93A24,24,0,0,1,458,911.4Zm0-36.46a12.53,12.53,0,1,0,12.52,12.53A12.54,12.54,0,0,0,458,874.94Z"/><path class="cls-2" d="M608.86,353a23.93,23.93,0,1,1,23.93-23.93A24,24,0,0,1,608.86,353Zm0-36.46a12.53,12.53,0,1,0,12.52,12.53A12.54,12.54,0,0,0,608.86,316.54Z"/></svg>