<svg id="Layer_1" data-name="Layer 1" xmlns="http://www.w3.org/2000/svg" viewBox="0 0 1080 1080"><path d="M169.44,694.41h0V803.67A34.43,34.43,0,0,1,135,838.11h0V728.85A34.44,34.44,0,0,1,169.44,694.41Z"/><path d="M393,735.32a77.44,77.44,0,0,0-16.7-24.21,76.29,76.29,0,0,0-24.21-15.92,75.05,75.05,0,0,0-29-5.7,73.61,73.61,0,0,0-29.39,6,79.59,79.59,0,0,0-24.34,16.18A77,77,0,0,0,252.64,736a74.69,74.69,0,0,0-6.21,30.42,73.44,73.44,0,0,0,6,29.39,78,78,0,0,0,16.31,24.34A77,77,0,0,0,293,836.69a74.49,74.49,0,0,0,30,6.08,77.23,77.23,0,0,0,28.74-5.44,73.8,73.8,0,0,0,41-39.61,77.57,77.57,0,0,0,6.34-31.85A74.43,74.43,0,0,0,393,735.32Zm-31.2,47.9a45.37,45.37,0,0,1-8.42,14.24,41,41,0,0,1-13.2,10,38.81,38.81,0,0,1-17.09,3.75A39.38,39.38,0,0,1,307.28,808a44.13,44.13,0,0,1-13.47-9.06,42.71,42.71,0,0,1-9.45-14.12,46.82,46.82,0,0,1-3.49-18.38A44.63,44.63,0,0,1,285,746.71a46.61,46.61,0,0,1,10.36-14.24A43,43,0,0,1,309,723.93a39.13,39.13,0,0,1,14.11-2.85,36.39,36.39,0,0,1,15.53,3.5,44.06,44.06,0,0,1,13.34,9.58,46.82,46.82,0,0,1,9.32,14.37,46.12,46.12,0,0,1,3.49,18.12A47.36,47.36,0,0,1,361.78,783.22Z"/><path d="M508,694.41h0v12.43c1.38-1.38,3.2-3.06,5.44-5.05a47.91,47.91,0,0,1,8.16-5.69,54.54,54.54,0,0,1,11.13-4.66,49.84,49.84,0,0,1,14.63-2,58.45,58.45,0,0,1,10.36,1A55.61,55.61,0,0,1,569.26,694a68,68,0,0,1,11.39,6.22,45.8,45.8,0,0,1,10,9.19,46.79,46.79,0,0,1,7.64,13.08,73.6,73.6,0,0,1,3.88,14.11A106.8,106.8,0,0,1,603.56,750q.26,6.34.26,10.49v43.24a34.44,34.44,0,0,1-34.43,34.43h0V767.17q0-4.39-.52-12.17a55.84,55.84,0,0,0-3.24-15.28,33.78,33.78,0,0,0-8.54-13.07q-5.83-5.56-16.7-5.57-4.67,0-11.78,2.72a24.16,24.16,0,0,0-11.78,10,26.83,26.83,0,0,0-3.63,7.64,49.44,49.44,0,0,0-1.81,9.06c-.35,3.2-.56,6.43-.65,9.71s-.13,6.47-.13,9.58v68.35h0a34.43,34.43,0,0,1-34.43-34.43V726.26A31.85,31.85,0,0,1,508,694.41Z"/><path d="M715.25,694.41h0V803.67a34.44,34.44,0,0,1-34.44,34.44h0V728.85A34.44,34.44,0,0,1,715.25,694.41Z"/><path d="M938.78,735.32a77.27,77.27,0,0,0-16.7-24.21,76.29,76.29,0,0,0-24.21-15.92,75.05,75.05,0,0,0-29-5.7,73.64,73.64,0,0,0-29.39,6,79.43,79.43,0,0,0-24.33,16.18A76.83,76.83,0,0,0,798.45,736a74.54,74.54,0,0,0-6.22,30.42,73.61,73.61,0,0,0,6,29.39,78.14,78.14,0,0,0,16.31,24.34,77.08,77.08,0,0,0,24.34,16.57,74.53,74.53,0,0,0,30,6.08,77.23,77.23,0,0,0,28.74-5.44,73.8,73.8,0,0,0,41-39.61A77.41,77.41,0,0,0,945,765.87,74.43,74.43,0,0,0,938.78,735.32Zm-31.2,47.9a45.37,45.37,0,0,1-8.42,14.24,41,41,0,0,1-13.2,10,38.78,38.78,0,0,1-17.09,3.75A39.38,39.38,0,0,1,853.08,808a44.13,44.13,0,0,1-13.47-9.06,42.71,42.71,0,0,1-9.45-14.12,46.82,46.82,0,0,1-3.49-18.38,44.63,44.63,0,0,1,4.14-19.68,46.61,46.61,0,0,1,10.36-14.24,43,43,0,0,1,13.59-8.54,39.13,39.13,0,0,1,14.11-2.85,36.46,36.46,0,0,1,15.54,3.5,44,44,0,0,1,13.33,9.58,46.82,46.82,0,0,1,9.32,14.37,46.13,46.13,0,0,1,3.5,18.12A47.37,47.37,0,0,1,907.58,783.22Z"/><path d="M152.23,682.53a17.22,17.22,0,1,1,17.21-17.22A17.24,17.24,0,0,1,152.23,682.53Zm0-26.23a9,9,0,1,0,9,9A9,9,0,0,0,152.23,656.3Z"/><path d="M698,682.53a17.22,17.22,0,1,1,17.22-17.22A17.24,17.24,0,0,1,698,682.53Zm0-26.23a9,9,0,1,0,9,9A9,9,0,0,0,698,656.3Z"/><path d="M411.68,440.76a49.85,49.85,0,0,1-23.74-42.31V348.38a49.75,49.75,0,0,1,24.49-42.76L517.56,244a49.83,49.83,0,0,1,48.69-.82l5.5,3-5.44,10-5.51-3a38.32,38.32,0,0,0-37.46.63L418.21,315.48a38.31,38.31,0,0,0-18.85,32.9v50.07A38.35,38.35,0,0,0,417.63,431l89.75,54.78-6,9.75Z"/><path d="M500.35,491.1l-87-53.1a46.61,46.61,0,0,1-22.2-39.55V348.38a46.51,46.51,0,0,1,22.91-40l105.12-61.63a46.61,46.61,0,0,1,45.52-.76l2.67,1.45L565,251.83l-2.67-1.44a41.57,41.57,0,0,0-40.63.68L416.58,312.7a41.51,41.51,0,0,0-20.45,35.68v50.07A41.63,41.63,0,0,0,416,433.76l87,53.09Z"/><path d="M441.19,415.86V380.61A49.69,49.69,0,0,1,466,337.68l106.41-61.41a49.85,49.85,0,0,1,48.59-.55l46.56,25.51a47.17,47.17,0,0,1,24.53,41.39v3.23H680.64v-3.23a35.77,35.77,0,0,0-18.59-31.37l-46.56-25.5a38.37,38.37,0,0,0-37.39.41L471.69,347.58a38.24,38.24,0,0,0-19.07,33v35.25Z"/><path d="M449.39,412.63h-5v-32a46.46,46.46,0,0,1,23.17-40.13L574,279.06a46.64,46.64,0,0,1,45.43-.5L666,304.06a44,44,0,0,1,22.85,38.56h-5a39,39,0,0,0-20.27-34.2L617,282.91a41.62,41.62,0,0,0-40.55.46L470.08,344.78a41.47,41.47,0,0,0-20.69,35.83Z"/><path d="M537.14,572.9a49.28,49.28,0,0,1-21.88-5.11l-8.36-4.11,5-10.26,8.36,4.11a37.89,37.89,0,0,0,37-1.86L662.66,490a37.9,37.9,0,0,0,18-32.37V410.42a37.93,37.93,0,0,0-17.84-32.28l-91.21-57.35,6.08-9.67,91.21,57.34a49.3,49.3,0,0,1,23.19,42v47.25a49.28,49.28,0,0,1-23.37,42.08L563.31,565.37a49.54,49.54,0,0,1-26.17,7.53Z"/><path d="M537.14,569.67a46.42,46.42,0,0,1-20.45-4.78l-5.47-2.68,2.19-4.46,5.47,2.68a41.12,41.12,0,0,0,40.09-2l105.39-65.62a41.12,41.12,0,0,0,19.51-35.12V410.42a41.16,41.16,0,0,0-19.35-35L576,319.78l2.65-4.21,88.47,55.62a46.11,46.11,0,0,1,21.68,39.23v47.25A46.08,46.08,0,0,1,667,497L561.6,562.63A46.18,46.18,0,0,1,537.14,569.67Z"/><path d="M481.17,538.25a49.68,49.68,0,0,1-23.71-6l-43.68-23.8a49.54,49.54,0,0,1-25.84-43.52v-5h11.42v5a38.09,38.09,0,0,0,19.89,33.48l43.68,23.8a38.36,38.36,0,0,0,37.62-.63l103.48-61a38.28,38.28,0,0,0,18.76-32.85V388.43h11.43v39.25a49.76,49.76,0,0,1-24.38,42.69l-103.48,61A49.67,49.67,0,0,1,481.17,538.25Z"/><path d="M481.17,535A46.34,46.34,0,0,1,459,529.4l-43.67-23.8a46.3,46.3,0,0,1-24.17-40.68v-1.76h5v1.76a41.34,41.34,0,0,0,21.58,36.32L461.38,525a41.56,41.56,0,0,0,40.81-.69l103.48-61A41.54,41.54,0,0,0,626,427.68v-36h5v36a46.51,46.51,0,0,1-22.79,39.91l-103.48,61A46.44,46.44,0,0,1,481.17,535Z"/><path d="M573.82,264.27a10.43,10.43,0,1,1,10.42-10.43A10.44,10.44,0,0,1,573.82,264.27Zm0-15.89a5.46,5.46,0,1,0,5.45,5.46A5.47,5.47,0,0,0,573.82,248.38Z"/><path d="M446.9,431.73a10.43,10.43,0,1,1,10.43-10.43A10.44,10.44,0,0,1,446.9,431.73Zm0-15.89a5.46,5.46,0,1,0,5.46,5.46A5.47,5.47,0,0,0,446.9,415.84Z"/><path d="M686.35,361.89a10.43,10.43,0,1,1,10.43-10.43A10.44,10.44,0,0,1,686.35,361.89Zm0-15.89a5.46,5.46,0,1,0,5.46,5.46A5.47,5.47,0,0,0,686.35,346Z"/><path d="M628.51,393.21a10.43,10.43,0,1,1,10.42-10.43A10.44,10.44,0,0,1,628.51,393.21Zm0-15.89a5.46,5.46,0,1,0,5.45,5.46A5.47,5.47,0,0,0,628.51,377.32Z"/><path d="M509.24,504a10.43,10.43,0,1,1,10.43-10.43A10.44,10.44,0,0,1,509.24,504Zm0-15.89a5.46,5.46,0,1,0,5.46,5.46A5.47,5.47,0,0,0,509.24,488.14Z"/><path d="M393.65,464.82a10.43,10.43,0,1,1,10.43-10.43A10.44,10.44,0,0,1,393.65,464.82Zm0-15.88a5.46,5.46,0,1,0,5.46,5.45A5.46,5.46,0,0,0,393.65,448.94Z"/><path d="M504.25,566.93a10.43,10.43,0,1,1,10.43-10.43A10.44,10.44,0,0,1,504.25,566.93Zm0-15.88a5.46,5.46,0,1,0,5.46,5.45A5.46,5.46,0,0,0,504.25,551.05Z"/><path d="M570,323.56a10.43,10.43,0,1,1,10.43-10.43A10.44,10.44,0,0,1,570,323.56Zm0-15.89a5.46,5.46,0,1,0,5.46,5.46A5.47,5.47,0,0,0,570,307.67Z"/></svg>